<svg width="3356" height="1290" viewBox="0 0 3356 1290" fill="none" xmlns="http://www.w3.org/2000/svg">
<path d="M1791 389.985C1791 376.227 1777.16 362.813 1756.57 349.88L1778.93 242.639C1780.29 236.122 1778.64 229.339 1774.44 224.169C1770.23 218.999 1763.92 216.002 1757.25 216.002H1704.19C1695.58 216.002 1687.74 220.994 1684.11 228.794L1651.15 299.55C1625.59 288.435 1602.67 277.955 1588.99 268.261C1548.54 239.604 1494.06 217.78 1431.61 206.068L1403.25 157.746C1391.32 137.432 1369.51 124.946 1345.92 124.946H1291.4C1290.91 90.5832 1290 58.4816 1290.03 48.9551C1290.07 28.7832 1273.74 4.36601 1234.59 4.27695C1234.59 4.27695 1229.6 -3.8668 1221.96 2.3207C1215.01 7.99882 1215.76 52.4223 1221.81 59.066C1228.13 66.0285 1231.92 58.4816 1231.92 58.4816C1231.92 58.4816 1241.17 56.6129 1245.39 58.5191C1249.57 60.4004 1252.08 65.6848 1252.04 85.8566C1252.03 92.2598 1251.99 107.197 1251.94 124.969C1217.84 125.11 1189.36 150.999 1186.07 184.916L1183.51 211.364C1069.17 237.304 990.003 297.124 990.003 389.985C990.003 518.211 1140.88 583.48 1327.01 583.48C1435.24 583.48 1531.56 554.186 1593.22 508.658C1606.11 499.144 1628.23 488.905 1653.09 478.082L1684.11 544.672C1687.74 552.472 1695.58 557.464 1704.19 557.464H1757.25C1763.92 557.464 1770.23 554.466 1774.44 549.296C1778.64 544.127 1780.29 537.343 1778.93 530.825L1757.6 428.538C1777.58 416.064 1791 403.183 1791 389.985ZM1145.43 425.211C1116.53 425.211 1093.11 401.811 1093.11 372.949C1093.11 344.099 1116.53 320.7 1145.43 320.7C1174.32 320.7 1197.75 344.099 1197.75 372.949C1197.75 401.811 1174.32 425.211 1145.43 425.211ZM1301.5 425.211C1272.6 425.211 1249.18 401.811 1249.18 372.949C1249.18 344.099 1272.6 320.7 1301.5 320.7C1330.39 320.7 1353.82 344.099 1353.82 372.949C1353.82 401.811 1330.39 425.211 1301.5 425.211ZM1457.56 425.211C1428.67 425.211 1405.25 401.811 1405.25 372.949C1405.25 344.099 1428.67 320.7 1457.56 320.7C1486.46 320.7 1509.88 344.099 1509.88 372.949C1509.88 401.811 1486.46 425.211 1457.56 425.211Z" fill="black"/>
<path d="M2953.58 164.412C2950.45 159.961 2944.95 157.932 2939.77 159.265C2939.77 159.265 2935.25 156.57 2915.4 165.594C2842.89 198.504 2763.23 275.834 2734.37 283.191C2705.27 290.58 2558.34 208.406 2498.86 194.571C2496.36 183.549 2494.07 170.803 2492.26 156.179C2484.88 95.9576 2526.33 31.557 2469.49 43.4256C2380.88 61.8651 2330.63 129.928 2302.72 186.456C2205.45 198.658 2107.08 235.868 2040.04 253.49C1962.83 273.836 1968.96 323.672 2014.87 339.234L2204.7 401.575L2051.53 426.19C2047.03 426.917 2043.22 429.975 2041.5 434.305C2039.77 438.605 2040.43 443.51 2043.13 447.234L2048.52 454.531C2190.93 517.781 2332.11 505.972 2436.02 491.773C2469.52 511.21 2513.44 533.888 2551.32 544.243C2592.7 551.934 2562.27 503.157 2537.66 470.124C2657.27 435.67 2718.48 402.395 2741.51 415.899C2810.36 456.198 2863.56 478.028 2897.43 489.502C2924.83 498.797 2907.54 492.317 2907.54 492.317C2912.72 493.771 2918.22 491.864 2921.41 487.504C2924.62 483.113 2924.89 477.209 2922.06 472.607L2915.79 462.282L2859.91 370.422C2859.91 370.422 2898.41 273.504 2941.88 198.024C2951.85 180.735 2953.87 179.373 2953.87 179.373C2956.82 174.796 2956.7 168.863 2953.58 164.412ZM2132.73 323.67C2120.05 323.67 2109.79 313.224 2109.79 300.296C2109.79 287.398 2120.05 276.952 2132.73 276.952C2145.43 276.952 2155.7 287.398 2155.7 300.296C2155.7 313.224 2145.43 323.67 2132.73 323.67Z" fill="black"/>
<path d="M739.422 249.357C728.713 276.126 713.68 293.059 694.738 299.685C694.049 299.926 693.367 300.135 692.691 300.345C693.28 294.717 693.594 289.006 693.594 283.223V217.979H628.35V283.223C628.35 325.751 601.077 362.009 563.107 375.477V304.971H497.863V381.088H432.619V297.721C432.619 267.742 457.01 243.353 486.988 243.353C576.929 243.353 650.096 170.182 650.096 80.2451H584.852C584.852 114.478 567.171 144.642 540.479 162.136C426.163 119.334 422.799 4.96874 422.713 0L390.095 0.409376L357.473 0.660931C357.485 2.44218 358.054 44.8624 379.302 93.4045C391.723 121.772 412.876 155.901 448.558 184.479C401.407 200.528 367.379 245.21 367.379 297.72V326.807C340.099 306.282 306.206 294.096 269.514 294.096C259.409 294.096 249.66 292.557 240.482 289.701C247.415 284.921 254.557 279.312 261.629 272.712C319.998 218.262 327.118 141.784 322.815 87.217L257.774 92.3467C262.289 149.561 249.307 193.526 219.198 223.025C207.245 234.734 194.668 241.968 185.415 246.203C176.684 231.567 171.65 214.478 171.65 196.228V65.7421H106.404V162.612C106.022 162.486 105.644 162.379 105.258 162.242C86.317 155.615 71.2827 138.683 60.5749 111.914L0 136.15C26.6499 202.771 73.0827 225.629 109.942 229.992C125.537 303.782 191.15 359.338 269.514 359.338C323.476 359.338 367.379 403.238 367.379 457.204V466.633C312.762 461.948 259.634 445.587 212.098 418.54C156.815 387.087 109.862 341.871 76.3139 287.779L20.8687 322.167C48.3171 366.423 83.4545 405.58 124.209 437.737C107.808 466.307 77.2514 467.985 73.4092 468.079L73.7858 468.077V533.321C76.9561 533.321 142.734 532.557 178.481 474.449C178.936 474.71 179.379 474.988 179.836 475.247C237.189 507.877 301.442 527.251 367.382 532.083V587.689H432.626V446.329H508.672C526.04 481.982 554.05 508.81 590.811 524.566C622.996 538.361 650.677 538.757 653.727 538.757V473.513L653.983 473.515C651.746 473.477 609.649 472.277 580.791 438.355C618.125 426.219 649.603 400.984 669.733 368.071C671.858 368.199 674.046 368.266 676.297 368.266C714.564 368.266 769.908 348.821 800.003 273.59L739.422 249.357Z" fill="black"/>
<path d="M2191 1091.98C2191 1078.23 2177.16 1064.81 2156.57 1051.88L2178.93 944.639C2180.29 938.122 2178.64 931.339 2174.44 926.169C2170.23 920.999 2163.92 918.002 2157.25 918.002H2104.19C2095.58 918.002 2087.74 922.994 2084.11 930.794L2051.15 1001.55C2025.59 990.435 2002.67 979.955 1988.99 970.261C1948.54 941.604 1894.06 919.78 1831.61 908.068L1803.25 859.746C1791.32 839.432 1769.51 826.946 1745.92 826.946H1691.4C1690.91 792.583 1690 760.482 1690.03 750.955C1690.07 730.783 1673.74 706.366 1634.59 706.277C1634.59 706.277 1629.6 698.133 1621.96 704.321C1615.01 709.999 1615.76 754.422 1621.81 761.066C1628.13 768.029 1631.92 760.482 1631.92 760.482C1631.92 760.482 1641.17 758.613 1645.39 760.519C1649.57 762.4 1652.08 767.685 1652.04 787.857C1652.03 794.26 1651.99 809.197 1651.94 826.969C1617.84 827.11 1589.36 852.999 1586.07 886.916L1583.51 913.364C1469.17 939.304 1390 999.124 1390 1091.98C1390 1220.21 1540.88 1285.48 1727.01 1285.48C1835.24 1285.48 1931.56 1256.19 1993.22 1210.66C2006.11 1201.14 2028.23 1190.91 2053.09 1180.08L2084.11 1246.67C2087.74 1254.47 2095.58 1259.46 2104.19 1259.46H2157.25C2163.92 1259.46 2170.23 1256.47 2174.44 1251.3C2178.64 1246.13 2180.29 1239.34 2178.93 1232.83L2157.6 1130.54C2177.58 1118.06 2191 1105.18 2191 1091.98ZM1545.43 1127.21C1516.53 1127.21 1493.11 1103.81 1493.11 1074.95C1493.11 1046.1 1516.53 1022.7 1545.43 1022.7C1574.32 1022.7 1597.75 1046.1 1597.75 1074.95C1597.75 1103.81 1574.32 1127.21 1545.43 1127.21ZM1701.5 1127.21C1672.6 1127.21 1649.18 1103.81 1649.18 1074.95C1649.18 1046.1 1672.6 1022.7 1701.5 1022.7C1730.39 1022.7 1753.82 1046.1 1753.82 1074.95C1753.82 1103.81 1730.39 1127.21 1701.5 1127.21ZM1857.57 1127.21C1828.67 1127.21 1805.25 1103.81 1805.25 1074.95C1805.25 1046.1 1828.67 1022.7 1857.57 1022.7C1886.46 1022.7 1909.88 1046.1 1909.88 1074.95C1909.89 1103.81 1886.46 1127.21 1857.57 1127.21Z" fill="black"/>
<path d="M3353.58 866.412C3350.45 861.961 3344.95 859.932 3339.77 861.265C3339.77 861.265 3335.25 858.57 3315.4 867.594C3242.89 900.504 3163.23 977.834 3134.37 985.191C3105.27 992.58 2958.34 910.406 2898.86 896.571C2896.36 885.549 2894.07 872.803 2892.26 858.179C2884.88 797.958 2926.33 733.557 2869.49 745.426C2780.88 763.865 2730.63 831.928 2702.72 888.456C2605.45 900.658 2507.08 937.868 2440.04 955.49C2362.83 975.836 2368.96 1025.67 2414.87 1041.23L2604.7 1103.58L2451.53 1128.19C2447.03 1128.92 2443.22 1131.97 2441.5 1136.31C2439.77 1140.61 2440.43 1145.51 2443.13 1149.23L2448.52 1156.53C2590.93 1219.78 2732.11 1207.97 2836.02 1193.77C2869.52 1213.21 2913.44 1235.89 2951.32 1246.24C2992.7 1253.93 2962.27 1205.16 2937.66 1172.12C3057.27 1137.67 3118.48 1104.39 3141.51 1117.9C3210.36 1158.2 3263.56 1180.03 3297.43 1191.5C3324.83 1200.8 3307.54 1194.32 3307.54 1194.32C3312.72 1195.77 3318.22 1193.86 3321.41 1189.5C3324.62 1185.11 3324.89 1179.21 3322.06 1174.61L3315.79 1164.28L3259.91 1072.42C3259.91 1072.42 3298.41 975.504 3341.88 900.024C3351.85 882.735 3353.87 881.373 3353.87 881.373C3356.82 876.796 3356.7 870.863 3353.58 866.412ZM2532.73 1025.67C2520.05 1025.67 2509.79 1015.22 2509.79 1002.3C2509.79 989.398 2520.05 978.952 2532.73 978.952C2545.43 978.952 2555.7 989.398 2555.7 1002.3C2555.7 1015.22 2545.43 1025.67 2532.73 1025.67Z" fill="black"/>
<path d="M1139.42 951.357C1128.71 978.126 1113.68 995.059 1094.74 1001.69C1094.05 1001.93 1093.37 1002.14 1092.69 1002.34C1093.28 996.717 1093.59 991.006 1093.59 985.223V919.979H1028.35V985.223C1028.35 1027.75 1001.08 1064.01 963.107 1077.48V1006.97H897.863V1083.09H832.619V999.721C832.619 969.742 857.01 945.353 886.988 945.353C976.929 945.353 1050.1 872.182 1050.1 782.245H984.852C984.852 816.478 967.171 846.642 940.479 864.136C826.163 821.334 822.799 706.969 822.713 702L790.095 702.409L757.473 702.661C757.485 704.442 758.054 746.862 779.302 795.405C791.723 823.772 812.876 857.901 848.558 886.479C801.407 902.528 767.379 947.21 767.379 999.72V1028.81C740.099 1008.28 706.206 996.096 669.514 996.096C659.409 996.096 649.66 994.557 640.482 991.701C647.415 986.921 654.557 981.312 661.629 974.712C719.998 920.262 727.118 843.784 722.815 789.217L657.774 794.347C662.289 851.561 649.307 895.526 619.198 925.025C607.245 936.734 594.668 943.968 585.415 948.203C576.684 933.567 571.65 916.478 571.65 898.228V767.742H506.404V864.612C506.022 864.486 505.644 864.379 505.258 864.242C486.317 857.615 471.283 840.683 460.575 813.914L400 838.15C426.65 904.771 473.083 927.629 509.942 931.992C525.537 1005.78 591.15 1061.34 669.514 1061.34C723.476 1061.34 767.379 1105.24 767.379 1159.2V1168.63C712.762 1163.95 659.634 1147.59 612.098 1120.54C556.815 1089.09 509.862 1043.87 476.314 989.779L420.869 1024.17C448.317 1068.42 483.455 1107.58 524.209 1139.74C507.808 1168.31 477.251 1169.98 473.409 1170.08L473.786 1170.08V1235.32C476.956 1235.32 542.734 1234.56 578.481 1176.45C578.936 1176.71 579.379 1176.99 579.836 1177.25C637.189 1209.88 701.442 1229.25 767.382 1234.08V1289.69H832.626V1148.33H908.672C926.04 1183.98 954.05 1210.81 990.811 1226.57C1023 1240.36 1050.68 1240.76 1053.73 1240.76V1175.51L1053.98 1175.51C1051.75 1175.48 1009.65 1174.28 980.791 1140.36C1018.13 1128.22 1049.6 1102.98 1069.73 1070.07C1071.86 1070.2 1074.05 1070.27 1076.3 1070.27C1114.56 1070.27 1169.91 1050.82 1200 975.59L1139.42 951.357Z" fill="black"/>
</svg>
