<?xml version="1.0" encoding="iso-8859-1"?>
<!-- Uploaded to: SVG Repo, www.svgrepo.com, Generator: SVG Repo Mixer Tools -->
<svg fill="#000000" height="303180" width="12632" version="1.1" id="Layer_1"
    xmlns="http://www.w3.org/2000/svg"
    xmlns:xlink="http://www.w3.org/1999/xlink" viewBox="0 0 12632 303180" xml:space="preserve">


    <defs>
        <pattern id='patt1' x='0' y='0' width='408' height='266' patternUnits="userSpaceOnUse">
            <g transform='scale(0.25)'>
                <g>
                    <path d="M473.231,227.529c-6.854,17.132-16.475,27.969-28.598,32.21c-0.441,0.154-0.877,0.288-1.31,0.422
            c0.377-3.602,0.578-7.257,0.578-10.958v-41.756h-41.756v41.756c0,27.218-17.455,50.423-41.756,59.043v-45.124h-41.756v48.715
            h-41.756v-53.355c0-19.187,15.61-34.796,34.796-34.796c57.562,0,104.389-46.829,104.389-104.389h-41.756
            c0,21.909-11.316,41.214-28.399,52.41C272.745,144.314,270.592,71.12,270.537,67.94l-20.876,0.262l-20.878,0.161
            c0.008,1.14,0.372,28.289,13.971,59.356c7.949,18.155,21.487,39.998,44.324,58.288c-30.177,10.271-51.955,38.868-51.955,72.474
            v18.616c-17.459-13.136-39.151-20.935-62.634-20.935c-6.467,0-12.706-0.985-18.58-2.813c4.437-3.059,9.008-6.649,13.534-10.873
			c37.356-34.848,41.913-83.794,39.159-118.717l-41.626,3.283c2.889,36.617-5.419,64.755-24.689,83.634
			c-7.65,7.494-15.699,12.124-21.621,14.834c-5.588-9.367-8.81-20.304-8.81-31.984v-83.511H68.099v61.997
			c-0.245-0.081-0.487-0.149-0.734-0.237c-12.122-4.241-21.744-15.078-28.597-32.21L0,155.076
            c17.056,42.638,46.773,57.267,70.363,60.059c9.981,47.226,51.973,82.782,102.126,82.782c34.536,0,62.634,28.096,62.634,62.634
            v6.035c-34.955-2.999-68.957-13.47-99.38-30.78c-35.381-20.13-65.431-49.068-86.902-83.687l-35.485,22.008
            c17.567,28.324,40.055,53.385,66.138,73.965c-10.497,18.285-30.053,19.359-32.512,19.419l0.241-0.001v41.756
            c2.029,0,44.127-0.489,67.005-37.678c0.291,0.167,0.575,0.345,0.867,0.511c36.706,20.883,77.828,33.282,120.03,36.375v35.588
            h41.756v-90.471h48.67c11.115,22.818,29.042,39.988,52.569,50.072c20.598,8.829,38.314,9.082,40.266,9.082v-41.756l0.164,0.001
            c-1.432-0.024-28.374-0.792-46.843-22.502c23.894-7.767,44.04-23.918,56.923-44.982c1.36,0.082,2.76,0.125,4.201,0.125
			c24.491,0,59.911-12.445,79.172-60.593L473.231,227.529z"/>
                </g>
            </g>
            <g transform="translate(140) scale(0.25)">
                <path class="st0" d="M512,318.877c0-8.805-8.85-17.39-22.012-25.667l14.297-68.634c0.87-4.171-0.188-8.512-2.874-11.821
		c-2.692-3.309-6.724-5.227-10.988-5.227h-33.914c-5.504,0-10.512,3.195-12.838,8.187l-21.065,45.284
            c-16.337-7.114-30.987-13.821-39.735-20.025c-25.854-18.341-60.679-32.308-100.598-39.804l-18.126-30.926
		c-7.626-13.001-21.569-20.992-36.646-20.992h-34.849c-0.313-21.992-0.895-42.537-0.874-48.634
            c0.028-12.91-10.41-28.537-35.44-28.594c0,0-3.187-5.212-8.073-1.252c-4.443,3.634-3.96,32.065-0.093,36.317
		c4.04,4.456,6.463-0.374,6.463-0.374s5.911-1.196,8.61,0.024c2.671,1.204,4.276,4.586,4.252,17.496
		c-0.012,4.098-0.036,13.658-0.065,25.032c-21.797,0.09-40.004,16.659-42.106,38.366l-1.638,16.927
            C50.602,221.161,0,259.446,0,318.877c0,82.065,96.443,123.837,215.415,123.837c69.183,0,130.748-18.748,170.163-47.886
		c8.24-6.089,22.378-12.642,38.268-19.569l19.825,42.618c2.325,4.992,7.334,8.187,12.838,8.187h33.914
            c4.264,0,8.297-1.919,10.988-5.228c2.686-3.308,3.744-7.65,2.874-11.821l-13.638-65.464C503.419,335.568,512,327.324,512,318.877z
		 M99.35,341.422c-18.471,0-33.443-14.976-33.443-33.448c0-18.464,14.972-33.439,33.443-33.439
		c18.468,0,33.439,14.975,33.439,33.439C132.789,326.446,117.818,341.422,99.35,341.422z
            M199.106,341.422
            c-18.471,0-33.439-14.976-33.439-33.448c0-18.464,14.968-33.439,33.439-33.439c18.472,0,33.443,14.975,33.443,33.439
		C232.549,326.446,217.578,341.422,199.106,341.422z
            M298.866,341.422c-18.468,0-33.439-14.976-33.439-33.448
            c0-18.464,14.971-33.439,33.439-33.439c18.471,0,33.442,14.975,33.442,33.439C332.309,326.446,317.338,341.422,298.866,341.422z"/>
            </g>
            <g transform="translate(280) scale(0.25)">
                <path class="st0" d="M510.723,189.37c-1.641-2.297-4.531-3.344-7.25-2.656c0,0-2.375-1.391-12.797,3.266
            c-38.078,16.984-79.906,56.891-95.062,60.688c-15.281,3.813-92.438-38.594-123.672-45.734c-1.313-5.688-2.516-12.266-3.469-19.813
            c-3.875-31.078,17.891-64.313-11.953-58.188c-46.531,9.516-72.922,44.641-87.578,73.813c-51.078,6.297-102.734,25.5-137.938,34.594
            c-40.547,10.5-37.328,36.219-13.219,44.25l99.688,32.172l-80.438,12.703c-2.359,0.375-4.359,1.953-5.266,4.188
		c-0.906,2.219-0.563,4.75,0.859,6.672l2.828,3.766c74.781,32.641,148.922,26.547,203.484,19.219
            c17.594,10.031,40.656,21.734,60.547,27.078c21.734,3.969,5.75-21.203-7.172-38.25c62.813-17.781,94.953-34.953,107.047-27.984
            c36.156,20.797,64.093,32.063,81.875,37.984c14.391,4.797,5.313,1.453,5.313,1.453c2.719,0.75,5.609-0.234,7.281-2.484
		c1.688-2.266,1.828-5.313,0.344-7.688l-3.297-5.328l-29.344-47.406c0,0,20.219-50.016,43.047-88.969
		c5.234-8.922,6.297-9.625,6.297-9.625C512.426,194.729,512.363,191.667,510.723,189.37z
            M79.676,271.558
            c-6.656,0-12.047-5.391-12.047-12.063c0-6.656,5.391-12.047,12.047-12.047c6.672,0,12.063,5.391,12.063,12.047
		C91.739,266.167,86.348,271.558,79.676,271.558z"/>
            </g>
            <g transform='translate(0, 140) scale(0.25)'>
                <g>
            <path class="st0" d="M512,318.877c0-8.805-8.85-17.39-22.012-25.667l14.297-68.634c0.87-4.171-0.188-8.512-2.874-11.821
		c-2.692-3.309-6.724-5.227-10.988-5.227h-33.914c-5.504,0-10.512,3.195-12.838,8.187l-21.065,45.284
            c-16.337-7.114-30.987-13.821-39.735-20.025c-25.854-18.341-60.679-32.308-100.598-39.804l-18.126-30.926
		c-7.626-13.001-21.569-20.992-36.646-20.992h-34.849c-0.313-21.992-0.895-42.537-0.874-48.634
            c0.028-12.91-10.41-28.537-35.44-28.594c0,0-3.187-5.212-8.073-1.252c-4.443,3.634-3.96,32.065-0.093,36.317
		c4.04,4.456,6.463-0.374,6.463-0.374s5.911-1.196,8.61,0.024c2.671,1.204,4.276,4.586,4.252,17.496
		c-0.012,4.098-0.036,13.658-0.065,25.032c-21.797,0.09-40.004,16.659-42.106,38.366l-1.638,16.927
            C50.602,221.161,0,259.446,0,318.877c0,82.065,96.443,123.837,215.415,123.837c69.183,0,130.748-18.748,170.163-47.886
		c8.24-6.089,22.378-12.642,38.268-19.569l19.825,42.618c2.325,4.992,7.334,8.187,12.838,8.187h33.914
            c4.264,0,8.297-1.919,10.988-5.228c2.686-3.308,3.744-7.65,2.874-11.821l-13.638-65.464C503.419,335.568,512,327.324,512,318.877z
		 M99.35,341.422c-18.471,0-33.443-14.976-33.443-33.448c0-18.464,14.972-33.439,33.443-33.439
		c18.468,0,33.439,14.975,33.439,33.439C132.789,326.446,117.818,341.422,99.35,341.422z
            M199.106,341.422
            c-18.471,0-33.439-14.976-33.439-33.448c0-18.464,14.968-33.439,33.439-33.439c18.472,0,33.443,14.975,33.443,33.439
		C232.549,326.446,217.578,341.422,199.106,341.422z
            M298.866,341.422c-18.468,0-33.439-14.976-33.439-33.448
            c0-18.464,14.971-33.439,33.439-33.439c18.471,0,33.442,14.975,33.442,33.439C332.309,326.446,317.338,341.422,298.866,341.422z"/>
                </g>
            </g>
            <g transform="translate(140, 140) scale(0.25)">
                <path class="st0" d="M510.723,189.37c-1.641-2.297-4.531-3.344-7.25-2.656c0,0-2.375-1.391-12.797,3.266
            c-38.078,16.984-79.906,56.891-95.062,60.688c-15.281,3.813-92.438-38.594-123.672-45.734c-1.313-5.688-2.516-12.266-3.469-19.813
            c-3.875-31.078,17.891-64.313-11.953-58.188c-46.531,9.516-72.922,44.641-87.578,73.813c-51.078,6.297-102.734,25.5-137.938,34.594
            c-40.547,10.5-37.328,36.219-13.219,44.25l99.688,32.172l-80.438,12.703c-2.359,0.375-4.359,1.953-5.266,4.188
		c-0.906,2.219-0.563,4.75,0.859,6.672l2.828,3.766c74.781,32.641,148.922,26.547,203.484,19.219
            c17.594,10.031,40.656,21.734,60.547,27.078c21.734,3.969,5.75-21.203-7.172-38.25c62.813-17.781,94.953-34.953,107.047-27.984
            c36.156,20.797,64.093,32.063,81.875,37.984c14.391,4.797,5.313,1.453,5.313,1.453c2.719,0.75,5.609-0.234,7.281-2.484
		c1.688-2.266,1.828-5.313,0.344-7.688l-3.297-5.328l-29.344-47.406c0,0,20.219-50.016,43.047-88.969
		c5.234-8.922,6.297-9.625,6.297-9.625C512.426,194.729,512.363,191.667,510.723,189.37z
            M79.676,271.558
            c-6.656,0-12.047-5.391-12.047-12.063c0-6.656,5.391-12.047,12.047-12.047c6.672,0,12.063,5.391,12.063,12.047
		C91.739,266.167,86.348,271.558,79.676,271.558z"/>
            </g>
            <g transform="translate(280, 140) scale(0.25)">
            <path d="M473.231,227.529c-6.854,17.132-16.475,27.969-28.598,32.21c-0.441,0.154-0.877,0.288-1.31,0.422
            c0.377-3.602,0.578-7.257,0.578-10.958v-41.756h-41.756v41.756c0,27.218-17.455,50.423-41.756,59.043v-45.124h-41.756v48.715
            h-41.756v-53.355c0-19.187,15.61-34.796,34.796-34.796c57.562,0,104.389-46.829,104.389-104.389h-41.756
            c0,21.909-11.316,41.214-28.399,52.41C272.745,144.314,270.592,71.12,270.537,67.94l-20.876,0.262l-20.878,0.161
            c0.008,1.14,0.372,28.289,13.971,59.356c7.949,18.155,21.487,39.998,44.324,58.288c-30.177,10.271-51.955,38.868-51.955,72.474
            v18.616c-17.459-13.136-39.151-20.935-62.634-20.935c-6.467,0-12.706-0.985-18.58-2.813c4.437-3.059,9.008-6.649,13.534-10.873
			c37.356-34.848,41.913-83.794,39.159-118.717l-41.626,3.283c2.889,36.617-5.419,64.755-24.689,83.634
			c-7.65,7.494-15.699,12.124-21.621,14.834c-5.588-9.367-8.81-20.304-8.81-31.984v-83.511H68.099v61.997
			c-0.245-0.081-0.487-0.149-0.734-0.237c-12.122-4.241-21.744-15.078-28.597-32.21L0,155.076
            c17.056,42.638,46.773,57.267,70.363,60.059c9.981,47.226,51.973,82.782,102.126,82.782c34.536,0,62.634,28.096,62.634,62.634
            v6.035c-34.955-2.999-68.957-13.47-99.38-30.78c-35.381-20.13-65.431-49.068-86.902-83.687l-35.485,22.008
            c17.567,28.324,40.055,53.385,66.138,73.965c-10.497,18.285-30.053,19.359-32.512,19.419l0.241-0.001v41.756
            c2.029,0,44.127-0.489,67.005-37.678c0.291,0.167,0.575,0.345,0.867,0.511c36.706,20.883,77.828,33.282,120.03,36.375v35.588
            h41.756v-90.471h48.67c11.115,22.818,29.042,39.988,52.569,50.072c20.598,8.829,38.314,9.082,40.266,9.082v-41.756l0.164,0.001
            c-1.432-0.024-28.374-0.792-46.843-22.502c23.894-7.767,44.04-23.918,56.923-44.982c1.36,0.082,2.76,0.125,4.201,0.125
			c24.491,0,59.911-12.445,79.172-60.593L473.231,227.529z"/>
                
            </g>
        </pattern>
    </defs>
    <rect width="12632" height="303180" x="0" y="0" fill='url(#patt1)'/>
</svg>